<?xml version="1.0" encoding="utf-8"?>
<!-- Generator: Adobe Illustrator 15.0.0, SVG Export Plug-In  -->
<!DOCTYPE svg PUBLIC "-//W3C//DTD SVG 1.1//EN" "http://www.w3.org/Graphics/SVG/1.1/DTD/svg11.dtd" [
	<!ENTITY ns_flows "http://ns.adobe.com/Flows/1.0/">
]>
<svg version="1.1"
	 xmlns="http://www.w3.org/2000/svg" xmlns:xlink="http://www.w3.org/1999/xlink" xmlns:a="http://ns.adobe.com/AdobeSVGViewerExtensions/3.0/"
	 x="0px" y="0px" width="397px" height="223px" viewBox="-28.347 -28.347 397 223"
	 overflow="visible" enable-background="new -28.347 -28.347 397 223" xml:space="preserve">
<defs>
</defs>
<path d="M306.748,62.64l-12.285,12.285l-4.176-4.175l24.814-24.817l-20.879-20.878L269.408,49.87l-4.176-4.176l12.285-12.283
	L244.107,0l-20.881,20.882l33.41,33.409l4.42-4.419l4.176,4.175l-4.42,4.419l8.354,8.354l-8.354,8.351l-8.352-8.353
	c-5.766,5.765-5.766,15.114,0,20.879c5.766,5.766,15.111,5.766,20.879,0l-8.35-8.352l8.35-8.35l8.352,8.35l4.42-4.421l4.176,4.175
	l-4.42,4.422l33.408,33.41l20.881-20.881L306.748,62.64z"/>
<path d="M243.98,58.338c-5.055,5.054-7.838,11.773-7.838,18.92s2.783,13.865,7.838,18.919c5.053,5.054,11.77,7.838,18.92,7.838
	c7.146,0,13.865-2.784,18.916-7.838l-2.207-2.209c-9.213,9.215-24.207,9.212-33.42,0c-9.213-9.214-9.213-24.206,0-33.419
	L243.98,58.338z"/>
<path d="M224.328,77.259c0.002,10.302,4.014,19.987,11.299,27.271c7.518,7.519,17.396,11.278,27.273,11.278
	c9.875,0,19.754-3.76,27.271-11.278l-2.209-2.21c-13.818,13.818-36.307,13.818-50.125,0c-6.695-6.694-10.385-15.595-10.385-25.062
	c0-9.468,3.688-18.369,10.385-25.063l-2.211-2.209C228.342,57.27,224.328,66.956,224.328,77.259z"/>
<path d="M229.486,110.672c-18.428-18.425-18.428-48.406,0-66.831l-2.211-2.21c-19.645,19.645-19.645,51.606,0,71.252
	c9.824,9.824,22.723,14.734,35.625,14.734s25.805-4.912,35.625-14.732l-2.209-2.211
	C277.889,129.102,247.912,129.098,229.486,110.672z"/>
<path d="M12.822,112.334C6.598,112.334,0,116.684,0,125.381v28.201c0,8.697,6.598,13.049,12.822,13.049
	c6.227,0,12.826-4.352,12.826-13.049v-16.799H11.924v6.748h6.074v10.051c0,3.674-2.4,5.4-5.176,5.4c-2.773,0-5.174-1.727-5.174-5.4
	v-28.201c0-3.674,2.4-5.398,5.174-5.398c2.775,0,5.176,1.725,5.176,5.398v2.701h7.65v-2.701
	C25.648,116.684,19.049,112.334,12.822,112.334z"/>
<rect x="32.629" y="112.783" width="7.646" height="53.398"/>
<path d="M59.701,112.334c-8.773,0-13.125,6.523-13.125,14.625c0,6.674,1.727,11.023,8.324,13.725l5.477,2.248
	c3.748,1.5,4.426,2.4,4.426,8.1c0,4.875-0.377,7.951-5.551,7.951c-3.9,0-5.4-2.699-5.4-5.475v-2.402h-7.65v2.852
	c0,7.197,5.625,12.674,13.051,12.674c9.9,0,13.197-6.674,13.197-15.674c0-7.801-1.273-12.076-8.023-14.625l-5.85-2.326
	c-3.975-1.574-4.348-2.998-4.348-7.123c0-3.527,0.973-6.9,5.172-6.9c3.9,0,5.402,2.926,5.402,6.451v1.723h7.646v-3.75
	C72.449,118.482,67.352,112.334,59.701,112.334z"/>
<path d="M90.154,112.334c-7.426,0-12.449,5.324-12.449,12.299v29.398c0,9.748,6.748,12.6,12.598,12.6
	c6.826,0,12.15-5.775,12.15-12.375v-3.299h-7.65v2.625c0,4.199-2.701,5.4-4.801,5.4c-3.451,0-4.648-2.4-4.648-5.475v-27.301
	c0-3.598,0.9-6.225,4.725-6.225c2.924,0,4.725,2.551,4.725,5.549v2.551h7.65v-3C102.453,117.658,97.205,112.334,90.154,112.334z"/>
<path d="M118.955,127.707c-4.648,0-8.174,2.174-9.975,5.477c-1.049,1.949-1.426,4.648-1.426,7.725v12.523
	c0,3.074,0.377,5.773,1.426,7.723c1.801,3.301,5.326,5.477,9.975,5.477s8.174-2.176,9.973-5.477
	c1.051-1.949,1.428-4.648,1.428-7.723v-12.523c0-3.076-0.377-5.775-1.428-7.725C127.129,129.881,123.604,127.707,118.955,127.707z
	 M122.705,154.631c0,2.85-1.426,4.352-3.75,4.352c-2.326,0-3.75-1.502-3.75-4.352v-14.922c0-2.852,1.424-4.352,3.75-4.352
	c2.324,0,3.75,1.5,3.75,4.352V154.631z"/>
<polygon points="144.082,112.783 136.434,112.783 136.434,166.182 159.232,166.182 159.232,158.531 144.082,158.531 "/>
<path d="M174.383,127.707c-3.447,0-6.299,1.199-8.324,3.225c-2.023,2.025-3.225,4.875-3.449,8.252h7.424
	c0.449-2.477,2.4-3.826,4.35-3.826c2.852,0,3.826,1.949,3.826,4.5v3.975c-1.574-0.074-2.625-0.225-3.674-0.225
	c-9.602,0-12.078,4.199-12.078,12.898c0,8.398,4.729,10.125,8.252,10.125c3.674,0,5.324-1.576,7.35-4.352h0.15v3.902h7.65v-26.473
	C185.859,131.758,180.758,127.707,174.383,127.707z M178.209,155.008c0,3.072-1.574,4.873-4.125,4.873
	c-2.475,0-3.977-1.951-3.977-4.873c0-4.051,2.701-5.402,6.002-5.402c0.674,0,1.275,0.076,2.1,0.227V155.008z"/>
<path d="M206.336,127.707c-3,0-5.4,1.424-7.051,3.9h-0.148v-18.824h-7.65v53.398h7.65v-3.453c1.951,2.176,3.449,3.902,7.273,3.902
	c3.076,0,5.328-1.125,6.678-3.6c0.898-1.65,1.273-3.977,1.273-8.176v-14.473c0-5.473-0.225-7.648-1.201-9.225
	C211.887,129.131,210.012,127.707,206.336,127.707z M206.713,153.805c0,3.074-1.125,5.178-3.75,5.178
	c-2.326,0-3.826-1.953-3.826-4.727v-14.773c0-2.398,1.65-4.125,3.826-4.125c2.924,0,3.75,2.1,3.75,4.5V153.805z"/>
</svg>
